<svg
    xmlns="http://www.w3.org/2000/svg"
    fill="none"
    viewBox="0 0 48 48">
    <path
        clip-rule="evenodd"
        d="M 24.0021,48.0083 C 17.5908,48.0083 11.5633,45.5116 7.0301,40.9782 C 2.4965,36.4448 0,30.4175 0,24.0062 C 0,17.5951 2.4965,11.5677 7.0301,7.0343 C 11.5633,2.5008 17.5908,0.0042 24.0021,0.0042 C 30.4134,0.0042 36.4406,2.5008 40.9738,7.0343 C 45.5075,11.5677 48.0039,17.5951 48.0039,24.0062 C 48.0039,30.4175 45.5075,36.4448 40.9738,40.9782 C 36.4406,45.5116 30.4134,48.0083 24.0021,48.0083 M 24.0021,2.069 C 18.1423,2.069 12.6333,4.3508 8.49,8.4943 C 4.3467,12.6376 2.0646,18.1466 2.0646,24.0062 C 2.0646,29.866 4.3467,35.3748 8.49,39.5181 C 12.6333,43.6616 18.1423,45.9435 24.0021,45.9435 C 29.8617,45.9435 35.3704,43.6616 39.5142,39.5181 C 43.6573,35.3748 45.9393,29.866 45.9393,24.0062 C 45.9393,18.1466 43.6573,12.6376 39.5142,8.4943 C 35.3704,4.3508 29.8617,2.069 24.0021,2.069 M 30.8603,22.7799 L 35.4749,19.5171 L 35.2418,29.4921 L 30.8603,22.7799 M 12.4952,19.5171 L 26.4322,31.7294 L 13.6139,31.7294 L 12.4952,19.5171 M 19.408,22.9192 L 23.9618,15.3219 L 34.5426,31.7294 L 28.6754,31.7294 L 19.408,22.9192"
        fill="currentcolor"
        fill-rule="evenodd" />
</svg>
